<svg aria-hidden="true" style="position: absolute; width: 0; height: 0; overflow: hidden;" version="1.1" xmlns="http://www.w3.org/2000/svg" xmlns:xlink="http://www.w3.org/1999/xlink">
<defs>
<symbol id="icon-chck2" viewBox="0 0 32 32">
<path fill="#f3f3f3" style="fill: var(--color1, #f3f3f3)" d="M5.333 0.916h21.333c2.946 0 5.333 2.388 5.333 5.333v20.35c0 2.946-2.388 5.333-5.333 5.333h-21.333c-2.946 0-5.333-2.388-5.333-5.333v-20.35c0-2.946 2.388-5.333 5.333-5.333z"></path>
<path fill="#333" style="fill: var(--color2, #333)" d="M9.563 16.156c-0.498-0.464-1.307-0.464-1.805 0s-0.498 1.217 0 1.681l4.513 4.203c0.5 0.466 1.311 0.464 1.809-0.004l10.165-9.552c0.496-0.466 0.493-1.219-0.008-1.681s-1.309-0.459-1.805 0.007l-9.263 8.704-3.606-3.358z"></path>
</symbol>
</defs>
</svg>
